<svg xmlns="http://www.w3.org/2000/svg" viewBox="0 0 109.52 38.03"><defs><style>.cls-1,.cls-2{fill:#fff;}.cls-2{fill-rule:evenodd;}</style></defs><title>sap</title><g id="Layer_2" data-name="Layer 2"><g id="main_sponsors" data-name="main sponsors"><path class="cls-1" d="M100.91,1.4a2.55,2.55,0,0,0-2.64,2.75c0,1.79,1.72,3.51,3.72,5.5l1.2,1.2,1.2-1.2c2-2,3.72-3.71,3.72-5.5a2.55,2.55,0,0,0-2.64-2.75,2.47,2.47,0,0,0-1.78.77l-.5.52-.5-.52a2.47,2.47,0,0,0-1.78-.77m2.29,11.43L101,10.65c-2.22-2.21-4.14-4.12-4.14-6.5a4,4,0,0,1,4-4.15,3.84,3.84,0,0,1,2.29.75A3.83,3.83,0,0,1,105.48,0a4,4,0,0,1,4,4.15c0,2.38-1.92,4.29-4.14,6.5l-2.19,2.19Z"/><path class="cls-1" d="M90.09,9.28l.61-.86a2.85,2.85,0,0,0,1.78.66c.48,0,.82-.16.82-.5s-.27-.49-1-.62c-1-.17-2-.4-2-1.61,0-1,.85-1.62,2-1.62a3.3,3.3,0,0,1,2.25.72L94,6.33a2.74,2.74,0,0,0-1.51-.56c-.44,0-.69.17-.69.45s.28.43.91.55c1,.17,2.08.4,2.08,1.57s-1.08,1.73-2.26,1.73a3.53,3.53,0,0,1-2.39-.79ZM86.53,10V4.84h1.55v.86h0a1.94,1.94,0,0,1,1.73-1h0l0,1.37-.4,0a1.71,1.71,0,0,0-1.36.7V10ZM84.09,7.42c0-.86-.3-1.55-1.07-1.55s-1.08.63-1.08,1.55S82.23,9,83,9s1.07-.63,1.07-1.57Zm-3.69,0a2.62,2.62,0,1,1,5.24,0,2.62,2.62,0,1,1-5.24,0ZM77.08,8.52V6h-.86V4.84h.86V3.08h1.54V4.84h1.32V6H78.62V8.18c0,.55.15.72.71.72a1.89,1.89,0,0,0,.51-.06V10a7.47,7.47,0,0,1-1,.08c-1.52,0-1.74-.55-1.74-1.51Zm-6-1.12a2.45,2.45,0,0,1,2.59-2.67A2.12,2.12,0,0,1,75.87,6.3l-1.3.43c-.2-.65-.5-.87-1-.87-.62,0-1,.53-1,1.55S72.89,9,73.61,9c.41,0,.79-.22,1-.91l1.28.44a2.31,2.31,0,0,1-2.32,1.56,2.4,2.4,0,0,1-2.52-2.66Zm-2.36,1v-1c-1.22.13-1.74.43-1.74.9s.23.49.57.49a1.59,1.59,0,0,0,1.17-.44Zm-3.25.22c0-1.18,1-1.84,3.25-2V6.51c0-.37-.19-.62-.69-.62a2.73,2.73,0,0,0-1.68.63l-.65-.88a3.6,3.6,0,0,1,2.56-.91c1.4,0,2,.69,2,2v2A3.51,3.51,0,0,0,70.36,10H68.82a2.44,2.44,0,0,1-.11-.75,2.27,2.27,0,0,1-1.79.83,1.37,1.37,0,0,1-1.46-1.38ZM61.11,10V2.85h4.7V4.16H62.67V5.89H64.9V7.13H62.67V10Zm-5.59-.68.62-.86a2.84,2.84,0,0,0,1.78.66c.48,0,.82-.16.82-.5s-.27-.49-1-.62c-1-.17-2-.4-2-1.61,0-1,.85-1.62,2-1.62A3.29,3.29,0,0,1,60,5.45l-.61.87a2.74,2.74,0,0,0-1.51-.56c-.44,0-.69.17-.69.45s.28.43.91.55c1,.17,2.08.4,2.08,1.57s-1.08,1.73-2.26,1.73a3.53,3.53,0,0,1-2.39-.79Zm-5.14,0L51,8.42a2.84,2.84,0,0,0,1.78.66c.48,0,.82-.16.82-.5s-.27-.49-1-.62c-1-.17-2-.4-2-1.61,0-1,.85-1.62,2-1.62a3.29,3.29,0,0,1,2.25.72l-.61.87a2.74,2.74,0,0,0-1.51-.56c-.44,0-.69.17-.69.45s.28.43.91.55c1,.17,2.08.4,2.08,1.57S54,10.07,52.77,10.07a3.53,3.53,0,0,1-2.39-.79ZM48.57,6.91c-.08-.72-.4-1.07-1-1.07s-.89.32-1,1.07ZM45,7.41A2.52,2.52,0,0,1,47.6,4.73c1.06,0,2.36.53,2.36,2.85v.23H46.56A1.11,1.11,0,0,0,47.75,9a2.35,2.35,0,0,0,1.52-.62l.6.92a3.31,3.31,0,0,1-2.23.77A2.41,2.41,0,0,1,45,7.41Zm-5.18,0a2.45,2.45,0,0,1,2.58-2.66,2.12,2.12,0,0,1,2.22,1.56l-1.29.43c-.2-.65-.5-.86-.95-.86-.62,0-1,.53-1,1.54S41.67,9,42.38,9c.41,0,.78-.22,1-.91l1.28.44a2.31,2.31,0,0,1-2.31,1.55,2.39,2.39,0,0,1-2.51-2.66Zm-5.34,0a2.45,2.45,0,0,1,2.59-2.67A2.12,2.12,0,0,1,39.32,6.3L38,6.73c-.2-.65-.5-.87-1-.87-.62,0-1,.53-1,1.55S36.34,9,37.05,9c.41,0,.79-.22,1-.91l1.28.44A2.31,2.31,0,0,1,37,10.07,2.4,2.4,0,0,1,34.5,7.41ZM28.86,8.58V4.84h1.55V8.13c0,.46.17.71.61.71a1.75,1.75,0,0,0,1.12-.52V4.84h1.55V10H32.13v-.8a2.21,2.21,0,0,1-1.77.9,1.34,1.34,0,0,1-1.5-1.49Zm-6.63-.23,1.18-.7a2.11,2.11,0,0,0,1.92,1.21c.72,0,1.24-.27,1.24-.82s-.51-.77-1.44-1c-1.27-.36-2.59-.68-2.59-2.17,0-1.33,1-2.12,2.57-2.12a3.2,3.2,0,0,1,2.83,1.46L26.85,5A2.12,2.12,0,0,0,25.1,4c-.66,0-1,.29-1,.71s.53.77,1.46,1c1.25.34,2.58.73,2.58,2.2,0,1.14-.86,2.16-2.84,2.16a3.18,3.18,0,0,1-3-1.75ZM15,6.22H16.1c1,0,1.34-.37,1.34-1.06s-.35-1-1.34-1H15v2.1ZM13.47,10V2.85h2.59c1.52,0,2.9.4,2.9,2.28S17.46,7.43,16,7.43H15V10ZM8.53,7.24h1.67L9.39,4.82h0L8.53,7.24ZM6.16,10,8.68,2.82h1.49L12.69,10H11.1l-.53-1.59H8.15L7.6,10ZM0,8.35l1.18-.7A2.11,2.11,0,0,0,3.1,8.86c.72,0,1.24-.27,1.24-.82S3.84,7.27,2.9,7C1.63,6.66.31,6.33.31,4.84c0-1.33,1-2.12,2.57-2.12A3.2,3.2,0,0,1,5.7,4.18L4.61,5A2.12,2.12,0,0,0,2.86,4c-.66,0-1,.29-1,.71s.53.77,1.46,1c1.25.34,2.58.73,2.58,2.2C5.87,9.08,5,10.1,3,10.1A3.18,3.18,0,0,1,0,8.35Z"/><path class="cls-2" d="M23.32,30.75H22.11v3.62H16.52L16,32.64a6.32,6.32,0,0,1-2,.3,6.25,6.25,0,0,1-2-.32l-.57,1.75H8l.38-1-.14.12A5.15,5.15,0,0,1,5,34.56H4.8A8.7,8.7,0,0,1,.54,33.43L1.7,31.12A5.21,5.21,0,0,0,4.82,32,1.66,1.66,0,0,0,6,31.63.89.89,0,0,0,6.28,31c0-.6-.84-.88-1.89-1.21a8.8,8.8,0,0,1-2.56-1.17A3,3,0,0,1,.54,26a3.18,3.18,0,0,1,.9-2.2,5.18,5.18,0,0,1,3.77-1.38h0a10.19,10.19,0,0,1,4.27,1L8.17,25.75A6.16,6.16,0,0,0,5.42,25c-1.13-.06-1.7.34-1.71.78s1.07,1,2.08,1.34c1.54.49,3.49,1.14,3.79,3l2.81-7.49h3.26l3.29,9v-9h3.77c3.6,0,5.29,1.28,5.29,4.08,0,2.51-1.74,4-4.68,4ZM0,19.1V38H19.34L38.28,19.1Zm14,7.25L12.8,30.11a3.44,3.44,0,0,0,1.21.21,3.54,3.54,0,0,0,1.18-.2L14,26.35Zm8.94-1.22h-.83v3h.83c1.11,0,2-.37,2-1.54s-.88-1.5-2-1.5Z"/><path class="cls-1" d="M24.67,36.7v-.44H25c.15,0,.31,0,.31.21s-.16.23-.34.23Zm0,.18h.25l.37.61h.24l-.4-.62a.37.37,0,0,0,.37-.39c0-.28-.17-.4-.5-.4h-.54V37.5h.21v-.61ZM24.93,38a1.23,1.23,0,1,0-1.24-1.23A1.22,1.22,0,0,0,24.93,38Zm-1-1.23a1,1,0,1,1,1,1,1,1,0,0,1-1-1Z"/></g></g></svg>